<?xml version="1.0" encoding="UTF-8" standalone="no"?>
<svg width="100px" height="100px" viewBox="0 0 100 100" version="1.1" xmlns="http://www.w3.org/2000/svg" xmlns:xlink="http://www.w3.org/1999/xlink">
    <!-- Generator: Sketch 41.2 (35397) - http://www.bohemiancoding.com/sketch -->
    <title>Group 3</title>
    <desc>Created with Sketch.</desc>
    <defs></defs>
    <g id="Page-1" stroke="none" stroke-width="1" fill="none" fill-rule="evenodd">
        <g id="Desktop-Copy" transform="translate(-283.000000, -412.000000)">
            <g id="Group-3" transform="translate(283.000000, 412.000000)">
                <rect id="Rectangle-3" fill="#2196F3" x="0" y="0" width="100" height="100" rx="5"></rect>
                <path d="M83.0018047,29.2360315 C77.458775,20.4187938 68.8124529,14.2926401 58.6597272,11.9819273 C55.7994032,11.3284262 52.8804317,11 49.9664871,11 C31.6785107,11 16.0615105,23.4768437 11.989696,41.3325041 C9.6739563,51.4852299 11.45349,61.9311933 16.9981953,70.748431 C22.541225,79.563993 31.1875471,85.6918224 41.3402728,88.0025352 C44.2005968,88.6560363 47.1195683,88.9827868 50.0335129,88.9827868 C68.3281919,88.9827868 83.9451921,76.5143213 88.010304,58.658661 C90.3260437,48.49253 88.54651,38.0465666 83.0018047,29.2360315 Z M50.0335129,83.741373 C47.5133446,83.741373 44.9797712,83.4531623 42.5048453,82.890146 C38.6106491,81.9987035 34.9778533,80.467165 31.7120236,78.3675834 C33.5049624,77.0974454 35.7117853,74.1248533 36.2094515,73.2870314 C36.7976025,72.286672 36.2748016,69.1900823 36.3987993,68.6337685 C36.5227969,68.0774548 34.0746813,63.4292189 33.3675596,62.6768548 C32.660438,61.9311933 34.1919764,59.0641668 34.6376976,57.0936097 C35.0901215,55.1230526 30.8809042,53.041903 29.4733634,51.55058 C28.0524175,50.0575813 26.5476894,54.1025855 24.7932903,52.8257449 C23.0388912,51.55058 23.9487658,48.8326857 24.178329,46.5420807 C24.3609742,44.6770891 19.0592372,43.0466877 17.0886801,42.5104817 C17.0886801,42.5037791 17.0886801,42.4970765 17.0953827,42.4903739 C20.2120802,28.810418 31.1557098,18.790068 44.5994,16.6552978 C43.6442831,17.6908457 42.7863534,19.1821687 42.5048453,21.7291473 C41.9619367,26.6304054 40.7320141,28.6797177 44.0246542,30.1459061 C47.3156186,31.6120944 48.781807,31.0490781 51.1059249,31.7561998 C53.4233403,32.4633214 51.9370442,38.3666145 52.4548182,38.5894752 C52.4548182,38.5894752 53.612688,47.8323264 62.141715,52.3347813 C63.9547616,53.2982765 59.1238805,56.3613533 56.1261537,56.9360991 C53.128427,57.5125206 50.5496112,57.1003122 49.5291441,59.9153938 C48.5002988,62.7287998 53.0630769,61.9764357 54.0383016,62.7355023 C55.0135263,63.494569 59.3082013,66.3565686 61.8333965,64.129638 C64.3602674,61.904383 72.0313647,64.6088721 71.959312,61.5977402 C71.8286118,56.4132983 79.5265194,55.0912153 83.7089263,51.3930695 C83.6167659,53.4222741 83.3553655,55.4581813 82.8979147,57.4806834 C79.382414,72.9468757 65.8666711,83.741373 50.0335129,83.741373 Z" id="Page-1" fill="#FFFFFF"></path>
            </g>
        </g>
    </g>
</svg>